<svg xmlns="http://www.w3.org/2000/svg" id="ArrowChoices" width="809.865" height="792.421" viewBox="0 0 809.865 792.421">
    <g class="layer1" transform="translate(-1099.475 -702.721)" fill-rule="evenodd" stroke="#000" stroke-linecap="round" stroke-linejoin="round">
        <path class="SpockToScissors" d="M1616.186 1439.233l21.94 12.907 21.941 12.907-22.148 12.548-22.148 12.548.207-25.455zm4.192 24.252l-272.575-4.78" stroke-width="10" />
        <path class="RockToLizard" d="M1153.04 892.917l11.176-21.998 11.176-21.998 14.662 20.104 14.661 20.105-25.837 1.893zm261.153-181.585l-249.775 175.08" stroke-width="9.875" />
        <path class="PaperToRock" d="M1584.106 707.632l24.97 2.72 24.969 2.721-14.864 20.06-14.863 20.06-10.106-22.78zm9.344 6.775l247.583 181.612" stroke-width="9.822" />
        <path class="LizardToSpock" d="M1169.217 1327.936l22.186-9.792 22.185-9.791-2.842 24.64-2.84 24.64-19.345-14.849zm30.665 13.252l-95.577-282.12" stroke-width="9.615" />
        <path class="SpockToRock" d="M1444.795 798.741l18.301-17.468 18.301-17.469 5.934 24.63 5.934 24.63-24.235-7.161zm33.684-24.95L1296.45 1354.42" stroke-width="9.94" />
        <path class="ScissorsToPaper" d="M1904.598 1106.965l-21.806-8.567-21.806-8.566 17.753-16.17 17.752-16.17 4.054 24.736zm-105.906 252.402l94.072-292.471" stroke-width="9.483" />
        <path class="PaperToSpock" d="M1311.54 1369.83l11.332-22.794 11.332-22.794 14.074 21.21 14.075 21.21-25.406 1.584zm492.404-382.942L1322.2 1365.369" stroke-width="10" />
        <path class="ScissorsToLizard" d="M1207.816 1033.34l-9.111-23.769-9.112-23.769 25.14 3.994 25.14 3.994-16.028 19.775zm-8.669-37.183l490.229 360.479" stroke-width="10" />
        <path class="LizardToPaper" d="M1764.891 993.491l-.273-25.454-.274-25.454 22.18 12.49 22.181 12.49-21.907 12.964zm35.69-26.76l-602.39.574" stroke-width="10" />
        <path class="RockToScissors" d="M1670.385 1319.35l23.73-9.212 23.731-9.212-3.888 25.157-3.888 25.157-19.842-15.946zM1502.43 770.242l204.182 573.361" stroke-width="10" />
    </g>
</svg>